<svg version="1.1" id="Layer_1" xmlns="http://www.w3.org/2000/svg" xmlns:xlink="http://www.w3.org/1999/xlink" x="0px" y="0px"
	 width="100%" viewBox="0 0 331 107" enable-background="new 0 0 331 107" xml:space="preserve">
<path fill="#000000" opacity="1.000000" stroke="none" 
	d="
M230.000000,108.000000 
	C153.333359,108.000000 77.166710,108.000000 1.000051,108.000000 
	C1.000034,72.333366 1.000034,36.666733 1.000017,1.000075 
	C111.333260,1.000050 221.666519,1.000050 331.999817,1.000025 
	C331.999878,36.666592 331.999878,72.333183 331.999939,107.999886 
	C298.166656,108.000000 264.333344,108.000000 230.000000,108.000000 
M208.149078,42.027229 
	C206.427444,42.072769 204.705795,42.118309 202.165955,42.447388 
	C202.112030,53.275379 202.041458,64.103378 202.046494,74.931343 
	C202.046799,75.566429 202.657410,76.201241 203.836273,76.972939 
	C205.557770,76.926636 207.279282,76.880325 209.833527,76.580399 
	C209.887619,65.721878 209.958038,54.863358 209.952988,44.004868 
	C209.952698,43.391754 209.332474,42.778927 208.149078,42.027229 
M38.339741,87.022804 
	C38.981140,87.297516 39.622543,87.572220 40.461670,87.990005 
	C40.461670,87.990005 40.663727,87.853119 41.460194,88.005440 
	C42.117027,87.641113 42.773857,87.276779 43.516285,86.967712 
	C43.516285,86.967712 43.469006,86.876854 44.190285,87.021896 
	C44.826420,87.293411 45.462555,87.564934 46.781017,87.985497 
	C48.376949,87.282341 49.972881,86.579185 51.959213,86.494759 
	C52.345997,86.940956 52.732784,87.387154 53.881283,87.982246 
	C59.096416,85.943802 64.311546,83.905357 70.539070,82.029686 
	C71.218658,81.991112 71.898239,81.952545 72.991081,82.470444 
	C78.286964,84.263870 83.582848,86.057289 89.513329,87.861588 
	C89.980118,87.272888 90.446907,86.684189 91.261780,86.726982 
	C92.613426,87.093254 93.965065,87.459534 95.888725,87.931114 
	C96.537682,87.560318 97.186646,87.189522 98.599655,86.989822 
	C100.438316,87.014107 102.276985,87.038383 104.735703,87.231857 
	C105.723602,87.435219 106.711494,87.638588 108.623856,87.803429 
	C108.730888,69.880219 108.842323,51.957016 108.905846,34.033649 
	C108.906868,33.745003 108.321503,33.454281 107.307289,33.014809 
	C106.240784,33.399254 105.174278,33.783699 103.594673,34.010365 
	C103.418144,33.981133 103.241615,33.951897 102.753967,33.280190 
	C101.207527,33.575195 99.661095,33.870197 97.567719,34.011993 
	C97.105812,33.732616 96.643906,33.453243 95.442375,33.009041 
	C94.311951,33.392490 93.181534,33.775936 91.439598,34.025700 
	C90.698685,33.739124 89.957764,33.452549 88.423027,33.002178 
	C83.017227,35.055286 77.611435,37.108391 71.498116,38.966988 
	C71.015099,39.028294 70.532089,39.089600 69.296707,38.988216 
	C64.211044,36.953384 59.125385,34.918549 53.743443,32.246471 
	C52.740711,32.880611 51.737980,33.514751 50.077435,33.995457 
	C49.064468,33.625225 48.051506,33.254993 46.778305,32.264484 
	C45.896236,32.896534 45.014172,33.528580 43.387199,34.009098 
	C42.228966,33.729778 41.070736,33.450455 39.336502,33.188984 
	C38.869553,33.510437 38.402603,33.831890 37.144409,33.992573 
	C36.278549,33.676422 35.412689,33.360275 34.229710,32.928341 
	C34.229710,51.377502 34.229710,69.466454 34.229710,88.283195 
	C35.481945,87.754906 36.547619,87.305328 38.339741,87.022804 
M130.159515,42.455547 
	C130.107666,53.277576 130.039261,64.099609 130.045761,74.921608 
	C130.046143,75.559731 130.649826,76.197495 131.904465,76.970650 
	C134.891937,76.979424 137.882278,77.074051 140.866135,76.974396 
	C144.293945,76.859909 147.967300,77.303749 151.094604,76.227882 
	C161.476074,72.656425 162.093536,63.444187 160.514313,54.177658 
	C159.630905,48.993999 156.442566,44.515430 150.970352,43.619598 
	C144.401215,42.544193 137.647034,42.599129 130.159515,42.455547 
M225.800156,76.660568 
	C226.130798,70.452301 226.461441,64.244041 226.916382,58.820232 
	C228.582306,63.887737 230.061264,69.030052 232.038895,73.972839 
	C232.567017,75.292793 234.506149,76.551102 236.000275,76.861488 
	C238.137466,77.305443 240.260300,77.415466 241.198685,74.028404 
	C242.745224,68.446381 245.211655,63.119217 247.290344,57.684628 
	C247.529327,57.763859 247.768326,57.843090 248.007324,57.922321 
	C248.007324,61.068909 248.007339,64.215500 248.007339,67.362083 
	C248.007339,70.468430 248.007324,73.574776 248.007324,76.821800 
	C250.660156,76.821800 252.782913,76.821800 255.783401,76.677986 
	C255.854111,65.750305 255.941422,54.822643 255.948669,43.894920 
	C255.949051,43.322910 255.268951,42.750450 254.022934,42.028885 
	C253.357910,42.021862 252.675476,42.110348 252.030624,41.992733 
	C246.799789,41.038712 244.031509,42.991871 242.798553,48.382668 
	C241.498550,54.066566 239.206253,59.523510 237.037064,66.007530 
	C235.980042,63.775768 235.336823,62.648609 234.897491,61.446915 
	C233.566833,57.807201 232.250397,54.159790 231.045639,50.477036 
	C228.179108,41.714596 228.206345,41.705688 218.146149,42.438389 
	C218.098557,53.283375 218.034958,64.128380 218.044952,74.973312 
	C218.045532,75.594498 218.646912,76.215134 219.813660,76.968201 
	C221.519318,76.920082 223.224960,76.871956 225.800156,76.660568 
M192.373703,75.089539 
	C194.020813,73.114067 195.667923,71.138596 197.257187,69.232513 
	C192.735443,64.040695 192.139191,64.003242 188.131699,68.260605 
	C183.315399,73.377213 176.615158,72.646591 174.920959,66.053307 
	C173.791199,61.656693 174.432144,56.275066 175.911865,51.883987 
	C177.453888,47.307991 183.824371,46.367195 187.272659,49.974548 
	C190.924011,53.794331 193.614075,52.937481 196.654907,49.723232 
	C192.782593,40.932827 184.095093,40.634731 176.831009,42.081001 
	C164.128265,44.610092 162.930084,61.799583 167.395950,69.832909 
	C171.995941,78.107422 182.153778,80.269852 192.373703,75.089539 
M81.742645,17.280239 
	C79.361824,11.669362 74.891685,10.747757 69.280380,10.841280 
	C64.721870,10.917256 61.665764,12.740521 60.970165,16.686745 
	C60.409298,19.868574 60.854607,23.867802 62.406754,26.632318 
	C64.745415,30.797688 71.842636,32.639709 75.608841,30.736309 
	C80.711395,28.157539 82.625755,23.688477 81.742645,17.280239 
z"/>
<path fill="#F2672C" opacity="1.000000" stroke="none" 
	d="
M254.905655,76.821800 
	C252.782913,76.821800 250.660156,76.821800 248.007324,76.821800 
	C248.007324,73.574776 248.007339,70.468430 248.007339,67.362083 
	C248.007339,64.215500 248.007324,61.068909 248.007324,57.922321 
	C247.768326,57.843090 247.529327,57.763859 247.290344,57.684628 
	C245.211655,63.119217 242.745224,68.446381 241.198685,74.028404 
	C240.260300,77.415466 238.137466,77.305443 236.000275,76.861488 
	C234.506149,76.551102 232.567017,75.292793 232.038895,73.972839 
	C230.061264,69.030052 228.582306,63.887737 226.891434,58.097252 
	C226.501770,56.561306 226.137039,55.748341 225.772324,54.935375 
	C225.491760,54.987560 225.211182,55.039745 224.930618,55.091934 
	C224.930618,62.335903 224.930618,69.579872 224.930618,76.823837 
	C223.224960,76.871956 221.519318,76.920082 219.393692,76.444153 
	C218.972092,64.668083 218.970444,53.416050 218.968796,42.164017 
	C228.206345,41.705688 228.179108,41.714596 231.045639,50.477036 
	C232.250397,54.159790 233.566833,57.807201 234.897491,61.446915 
	C235.336823,62.648609 235.980042,63.775768 237.037064,66.007530 
	C239.206253,59.523510 241.498550,54.066566 242.798553,48.382668 
	C244.031509,42.991871 246.799789,41.038712 252.030624,41.992733 
	C252.675476,42.110348 253.357910,42.021862 254.471222,42.559975 
	C254.914902,54.334641 254.910278,65.578217 254.905655,76.821800 
z"/>
<path fill="#F25C27" opacity="1.000000" stroke="none" 
	d="
M88.878731,87.850716 
	C83.582848,86.057289 78.286964,84.263870 72.684746,81.734840 
	C72.320816,67.053322 72.263229,53.107410 72.205643,39.161495 
	C77.611435,37.108391 83.017227,35.055286 88.786209,33.541813 
	C89.059174,52.004536 88.968948,69.927628 88.878731,87.850716 
z"/>
<path fill="#F15C27" opacity="1.000000" stroke="none" 
	d="
M54.039726,32.883717 
	C59.125385,34.918549 64.211044,36.953384 69.704170,39.527813 
	C70.135880,47.214565 70.254547,54.363007 70.157097,61.508503 
	C70.064529,68.296242 69.745903,75.080902 69.526680,81.866913 
	C64.311546,83.905357 59.096416,85.943802 53.468952,87.451385 
	C53.039124,70.269325 52.997417,53.618038 53.049145,36.967049 
	C53.053379,35.604923 53.694527,34.244781 54.039726,32.883717 
z"/>
<path fill="#F16427" opacity="1.000000" stroke="none" 
	d="
M130.972977,42.164619 
	C137.647034,42.599129 144.401215,42.544193 150.970352,43.619598 
	C156.442566,44.515430 159.630905,48.993999 160.514313,54.177658 
	C162.093536,63.444187 161.476074,72.656425 151.094604,76.227882 
	C147.967300,77.303749 144.293945,76.859909 140.866135,76.974396 
	C137.882278,77.074051 134.891937,76.979424 131.442551,76.445030 
	C130.978088,64.667816 130.975525,53.416218 130.972977,42.164619 
M137.997192,57.535854 
	C137.997192,62.282448 137.997192,67.029037 137.997192,72.456390 
	C142.439789,70.998505 147.196091,70.797203 149.469803,68.318573 
	C151.861313,65.711494 153.030746,60.818913 152.687469,57.114681 
	C152.012589,49.832256 146.451767,47.006805 137.997192,48.691715 
	C137.997192,51.267963 137.997192,53.910534 137.997192,57.535854 
z"/>
<path fill="#F26B2D" opacity="1.000000" stroke="none" 
	d="
M192.116272,75.372917 
	C182.153778,80.269852 171.995941,78.107422 167.395950,69.832909 
	C162.930084,61.799583 164.128265,44.610092 176.831009,42.081001 
	C184.095093,40.634731 192.782593,40.932827 196.654999,49.728664 
	C193.614075,52.937481 190.924011,53.794331 187.272659,49.974548 
	C183.824371,46.367195 177.453888,47.307991 175.911865,51.883987 
	C174.432144,56.275066 173.791199,61.656693 174.920959,66.053307 
	C176.615158,72.646591 183.315399,73.377213 188.131699,68.260605 
	C192.139191,64.003242 192.735443,64.040695 197.257187,69.232513 
	C195.667923,71.138596 194.020813,73.114067 192.116272,75.372917 
z"/>
<path fill="#F25F2B" opacity="1.000000" stroke="none" 
	d="
M81.854843,17.675192 
	C82.625755,23.688477 80.711395,28.157539 75.608841,30.736309 
	C71.842636,32.639709 64.745415,30.797688 62.406754,26.632318 
	C60.854607,23.867802 60.409298,19.868574 60.970165,16.686745 
	C61.665764,12.740521 64.721870,10.917256 69.280380,10.841280 
	C74.891685,10.747757 79.361824,11.669362 81.854843,17.675192 
z"/>
<path fill="#F6882B" opacity="1.000000" stroke="none" 
	d="
M47.038540,32.884762 
	C48.051506,33.254993 49.064468,33.625225 50.608250,34.436676 
	C51.340813,35.490261 51.719475,36.102909 51.718498,36.714951 
	C51.692417,53.102013 51.627312,69.489014 51.568817,85.876022 
	C49.972881,86.579185 48.376949,87.282341 46.404144,87.454330 
	C46.009197,70.270248 45.966228,53.617264 46.019356,36.964584 
	C46.023701,35.603573 46.683372,34.244652 47.038540,32.884762 
z"/>
<path fill="#FCAD28" opacity="1.000000" stroke="none" 
	d="
M104.115646,87.062668 
	C102.276985,87.038383 100.438316,87.014107 98.275063,86.449539 
	C98.005203,68.661232 98.059929,51.413216 98.114655,34.165199 
	C99.661095,33.870197 101.207527,33.575195 102.832634,34.069241 
	C102.895973,50.381676 102.851303,65.905174 102.911682,81.428261 
	C102.917580,82.945564 103.570396,84.460350 103.968193,86.248413 
	C104.047508,86.701241 104.081573,86.881950 104.115646,87.062668 
z"/>
<path fill="#F88623" opacity="1.000000" stroke="none" 
	d="
M92.051109,34.159382 
	C93.181534,33.775936 94.311951,33.392490 95.789429,33.549049 
	C96.120613,50.048893 96.130974,66.008850 96.055061,81.968399 
	C96.045769,83.921997 95.574104,85.873390 95.316711,87.825806 
	C93.965065,87.459534 92.613426,87.093254 91.155663,85.941315 
	C91.059074,70.075233 91.034164,54.994614 91.120987,39.914642 
	C91.132042,37.994499 91.726784,36.077721 92.051109,34.159382 
z"/>
<path fill="#FCAF29" opacity="1.000000" stroke="none" 
	d="
M43.469006,86.876854 
	C43.469006,86.876854 43.516285,86.967712 43.091946,86.942207 
	C41.999645,87.228836 41.331684,87.540977 40.663727,87.853119 
	C40.663727,87.853119 40.461670,87.990005 40.283669,87.464355 
	C40.041279,69.016174 39.976891,51.093655 39.912502,33.171131 
	C41.070736,33.450455 42.228966,33.729778 43.909119,34.459942 
	C44.553478,51.196285 44.700565,67.481728 44.740376,83.767433 
	C44.742905,84.802864 43.912121,85.840332 43.469006,86.876854 
z"/>
<path fill="#FFCE06" opacity="1.000000" stroke="none" 
	d="
M104.425674,87.147263 
	C104.081573,86.881950 104.047508,86.701241 103.996765,85.779572 
	C104.022652,68.081795 104.065216,51.124973 104.107780,34.168152 
	C105.174278,33.783699 106.240784,33.399254 107.656830,33.547848 
	C107.904053,52.001244 107.801720,69.921600 107.699387,87.841957 
	C106.711494,87.638588 105.723602,87.435219 104.425674,87.147263 
z"/>
<path fill="#FFCE05" opacity="1.000000" stroke="none" 
	d="
M37.613293,86.855751 
	C36.547619,87.305328 35.481945,87.754906 34.229710,88.283195 
	C34.229710,69.466454 34.229710,51.377502 34.229710,32.928341 
	C35.412689,33.360275 36.278549,33.676422 37.563850,34.531338 
	C37.859962,52.331985 37.736629,69.593872 37.613293,86.855751 
z"/>
<path fill="#F16224" opacity="1.000000" stroke="none" 
	d="
M209.000778,76.834023 
	C207.279282,76.880325 205.557770,76.926636 203.413818,76.446579 
	C202.988953,64.668098 202.986557,53.415974 202.984161,42.163849 
	C204.705795,42.118309 206.427444,42.072769 208.574493,42.554359 
	C209.000183,54.332333 209.000488,65.583176 209.000778,76.834023 
z"/>
<path fill="#FACA94" opacity="1.000000" stroke="none" 
	d="
M95.602722,87.878464 
	C95.574104,85.873390 96.045769,83.921997 96.055061,81.968399 
	C96.130974,66.008850 96.120613,50.048893 96.159241,33.631462 
	C96.643906,33.453243 97.105812,33.732616 97.841187,34.088596 
	C98.059929,51.413216 98.005203,68.661232 97.893036,86.363983 
	C97.186646,87.189522 96.537682,87.560318 95.602722,87.878464 
z"/>
<path fill="#FEDF8E" opacity="1.000000" stroke="none" 
	d="
M37.976517,86.939278 
	C37.736629,69.593872 37.859962,52.331985 37.959473,34.611721 
	C38.402603,33.831890 38.869553,33.510437 39.624504,33.180058 
	C39.976891,51.093655 40.041279,69.016174 40.184803,87.392815 
	C39.622543,87.572220 38.981140,87.297516 37.976517,86.939278 
z"/>
<path fill="#F9BC9C" opacity="1.000000" stroke="none" 
	d="
M91.745354,34.092541 
	C91.726784,36.077721 91.132042,37.994499 91.120987,39.914642 
	C91.034164,54.994614 91.059074,70.075233 90.981628,85.625572 
	C90.446907,86.684189 89.980118,87.272888 89.196030,87.856155 
	C88.968948,69.927628 89.059174,52.004536 89.183121,33.623711 
	C89.957764,33.452549 90.698685,33.739124 91.745354,34.092541 
z"/>
<path fill="#F9BCA7" opacity="1.000000" stroke="none" 
	d="
M70.032875,81.948303 
	C69.745903,75.080902 70.064529,68.296242 70.157097,61.508503 
	C70.254547,54.363007 70.135880,47.214565 70.080353,39.609158 
	C70.532089,39.089600 71.015099,39.028294 71.851883,39.064240 
	C72.263229,53.107410 72.320816,67.053322 72.478119,81.456604 
	C71.898239,81.952545 71.218658,81.991112 70.032875,81.948303 
z"/>
<path fill="#FDE1C9" opacity="1.000000" stroke="none" 
	d="
M43.829643,86.949371 
	C43.912121,85.840332 44.742905,84.802864 44.740376,83.767433 
	C44.700565,67.481728 44.553478,51.196285 44.281570,34.535706 
	C45.014172,33.528580 45.896236,32.896534 46.908424,32.574623 
	C46.683372,34.244652 46.023701,35.603573 46.019356,36.964584 
	C45.966228,53.617264 46.009197,70.270248 46.062981,87.379807 
	C45.462555,87.564934 44.826420,87.293411 43.829643,86.949371 
z"/>
<path fill="#FCD8C9" opacity="1.000000" stroke="none" 
	d="
M51.764015,86.185394 
	C51.627312,69.489014 51.692417,53.102013 51.718498,36.714951 
	C51.719475,36.102909 51.340813,35.490261 50.937157,34.513393 
	C51.737980,33.514751 52.740711,32.880611 53.891586,32.565094 
	C53.694527,34.244781 53.053379,35.604923 53.049145,36.967049 
	C52.997417,53.618038 53.039124,70.269325 53.088097,87.376938 
	C52.732784,87.387154 52.345997,86.940956 51.764015,86.185394 
z"/>
<path fill="#FFEBA0" opacity="1.000000" stroke="none" 
	d="
M108.161621,87.822693 
	C107.801720,69.921600 107.904053,52.001244 108.008080,33.622707 
	C108.321503,33.454281 108.906868,33.745003 108.905846,34.033649 
	C108.842323,51.957016 108.730888,69.880219 108.161621,87.822693 
z"/>
<path fill="#FFF2C5" opacity="1.000000" stroke="none" 
	d="
M103.851227,34.089256 
	C104.065216,51.124973 104.022652,68.081795 103.951508,85.507462 
	C103.570396,84.460350 102.917580,82.945564 102.911682,81.428261 
	C102.851303,65.905174 102.895973,50.381676 102.988190,34.390476 
	C103.241615,33.951897 103.418144,33.981133 103.851227,34.089256 
z"/>
<path fill="#FDBD5C" opacity="1.000000" stroke="none" 
	d="
M130.566254,42.310081 
	C130.975525,53.416218 130.978088,64.667816 130.976700,76.377419 
	C130.649826,76.197495 130.046143,75.559731 130.045761,74.921608 
	C130.039261,64.099609 130.107666,53.277576 130.566254,42.310081 
z"/>
<path fill="#FDBD5C" opacity="1.000000" stroke="none" 
	d="
M202.575058,42.305618 
	C202.986557,53.415974 202.988953,64.668098 202.987701,76.378197 
	C202.657410,76.201241 202.046799,75.566429 202.046494,74.931343 
	C202.041458,64.103378 202.112030,53.275379 202.575058,42.305618 
z"/>
<path fill="#F3A9CE" opacity="1.000000" stroke="none" 
	d="
M209.417145,76.707214 
	C209.000488,65.583176 209.000183,54.332333 209.000336,42.623726 
	C209.332474,42.778927 209.952698,43.391754 209.952988,44.004868 
	C209.958038,54.863358 209.887619,65.721878 209.417145,76.707214 
z"/>
<path fill="#FFE290" opacity="1.000000" stroke="none" 
	d="
M218.557465,42.301201 
	C218.970444,53.416050 218.972092,64.668083 218.971191,76.378067 
	C218.646912,76.215134 218.045532,75.594498 218.044952,74.973312 
	C218.034958,64.128380 218.098557,53.283375 218.557465,42.301201 
z"/>
<path fill="#F9E9FC" opacity="1.000000" stroke="none" 
	d="
M255.344528,76.749893 
	C254.910278,65.578217 254.914902,54.334641 254.912582,42.634628 
	C255.268951,42.750450 255.949051,43.322910 255.948669,43.894920 
	C255.941422,54.822643 255.854111,65.750305 255.344528,76.749893 
z"/>
<path fill="#F8DCF2" opacity="1.000000" stroke="none" 
	d="
M225.365387,76.742203 
	C224.930618,69.579872 224.930618,62.335903 224.930618,55.091934 
	C225.211182,55.039745 225.491760,54.987560 225.772324,54.935375 
	C226.137039,55.748341 226.501770,56.561306 226.829285,57.705025 
	C226.461441,64.244041 226.130798,70.452301 225.365387,76.742203 
z"/>
<path fill="#FEDF8E" opacity="1.000000" stroke="none" 
	d="
M41.061958,87.929276 
	C41.331684,87.540977 41.999645,87.228836 43.049149,86.914574 
	C42.773857,87.276779 42.117027,87.641113 41.061958,87.929276 
z"/>
<path fill="#000000" opacity="1.000000" stroke="none" 
	d="
M137.997192,57.044479 
	C137.997192,53.910534 137.997192,51.267963 137.997192,48.691715 
	C146.451767,47.006805 152.012589,49.832256 152.687469,57.114681 
	C153.030746,60.818913 151.861313,65.711494 149.469803,68.318573 
	C147.196091,70.797203 142.439789,70.998505 137.997192,72.456390 
	C137.997192,67.029037 137.997192,62.282448 137.997192,57.044479 
z"/>
</svg>